<svg xmlns="http://www.w3.org/2000/svg" width="55" height="72" viewBox="0 0 55 72">
    <g fill="none" fill-rule="evenodd">
        <path fill="#ED1C24" fill-rule="nonzero" d="M43.993 46.661c-.057-.006-8.329.238-9.559-8.626 1.367-.953 2.626-2.191 3.736-3.693 2.158-2.922 3.55-6.588 4.045-10.553.17-.154.31-.346.406-.572a17.413 17.413 0 0 0 1.35-6.777C43.972 7.375 37.135 0 28.729 0c-2.198 0-4.33.506-6.345 1.506a11.15 11.15 0 0 0-2.244.403c-3.452.997-6.261 3.557-7.91 7.207-1.601 3.545-1.917 7.717-.888 11.75.217.851.493 1.688.82 2.488.09.216.222.4.38.553.803 6.188 3.748 11.316 7.763 14.116-1.234 8.879-9.503 8.633-9.56 8.639-5.948.202-10.726 5.1-10.726 11.097v12.483c0 .893.724 1.618 1.618 1.618H53.1c.894 0 1.618-.725 1.618-1.618V57.759c0-5.997-4.777-10.896-10.726-11.098zM21.038 5.018a7.973 7.973 0 0 1 1.853-.3c.237-.012.47-.074.68-.185 1.638-.86 3.373-1.297 5.157-1.297 6.621 0 12.008 5.923 12.008 13.204 0 .219-.006.436-.016.652a7.054 7.054 0 0 0-5.039-2.114H24.654a3.015 3.015 0 0 1-2.798-1.89 1.974 1.974 0 0 0-1.96-1.237 1.986 1.986 0 0 0-1.8 1.485 15.008 15.008 0 0 1-3.661 6.552c-1.627-6.695 1.309-13.34 6.603-14.87zM19.63 33.002c-2.106-2.572-3.484-6.045-3.921-9.848a18.335 18.335 0 0 0 4.706-6.596 6.202 6.202 0 0 0 4.239 1.656H35.68c1.56 0 2.906.936 3.506 2.275l-.002.034c0 9.134-5.3 16.565-11.814 16.565-2.835 0-5.584-1.451-7.741-4.086zm3.718 6.61a11.78 11.78 0 0 0 8.043.008 12.67 12.67 0 0 0 4.706 7.629l-8.497 12.1a.266.266 0 0 1-.229.118.266.266 0 0 1-.228-.119l-8.499-12.102a12.672 12.672 0 0 0 4.704-7.634zm28.135 29.012H3.253V57.759c0-4.34 3.532-7.871 7.871-7.871.06 0 2.663-.063 4.72-.998l8.65 12.318a3.519 3.519 0 0 0 2.877 1.495 3.52 3.52 0 0 0 2.878-1.495l8.648-12.316c2.346.996 4.657.996 4.715.996 4.34 0 7.871 3.53 7.871 7.87v10.866z"/>
        <path stroke="#ED1C24" stroke-linecap="round" stroke-linejoin="round" stroke-width="3" d="M23 31c1.5 1.333 3 2 4.5 2s3-.667 4.5-2"/>
    </g>
</svg>
