<svg xmlns="http://www.w3.org/2000/svg" width="72" height="65" viewBox="0 0 72 65">
    <g fill="#ED1C24" fill-rule="evenodd">
        <path fill-rule="nonzero" d="M59.951 38.563h-47.96c-4.947 0-8.993 4.046-8.993 8.992v16.487h65.946V47.555c0-4.946-4.047-8.992-8.993-8.992zm5.996 22.481H5.995V47.555c0-3.297 2.698-5.995 5.995-5.995h47.961c3.298 0 5.996 2.698 5.996 5.995v13.49z"/>
        <path fill-rule="nonzero" d="M0 61.044h71.942v2.998H0zM62.2 49.504c-1.65-1.65-3.598-3.448-7.345-3.448s-5.695 1.799-7.344 3.448c-1.498 1.349-2.697 2.548-5.245 2.548s-3.747-1.05-5.246-2.548c-1.649-1.65-3.597-3.448-7.344-3.448-3.747 0-5.695 1.799-7.344 3.448-1.499 1.349-2.698 2.548-5.246 2.548-2.548 0-3.747-1.05-5.246-2.548-1.648-1.65-3.597-3.448-7.344-3.448v2.998c2.548 0 3.747 1.05 5.246 2.548 1.649 1.649 3.597 3.447 7.344 3.447 3.747 0 5.695-1.798 7.344-3.447 1.499-1.349 2.698-2.548 5.246-2.548 2.548 0 3.747 1.05 5.246 2.548 1.648 1.649 3.597 3.447 7.344 3.447 3.747 0 5.695-1.798 7.344-3.447 1.498-1.349 2.697-2.548 5.245-2.548s3.747 1.05 5.246 2.548c1.649 1.649 3.597 3.447 7.344 3.447v-2.997c-2.548 0-3.747-1.05-5.246-2.548zM49.46 16.08H22.482c-4.946 0-8.993 4.047-8.993 8.993V41.56h44.963V25.073c0-4.946-4.046-8.992-8.992-8.992zm5.995 22.483H16.487v-13.49c0-3.297 2.697-5.995 5.995-5.995H49.46c3.297 0 5.995 2.698 5.995 5.996v13.489z"/>
        <path fill-rule="nonzero" d="M56.054 26.872c-1.648-1.649-3.597-3.447-7.344-3.447-3.747 0-5.695 1.798-7.344 3.447-1.498 1.349-2.697 2.548-5.245 2.548s-3.747-1.049-5.246-2.548c-1.649-1.649-3.597-3.447-7.344-3.447-3.747 0-5.696 1.798-7.344 3.447-.75.6-1.35 1.2-1.949 1.649l1.649 2.548c.9-.6 1.499-1.35 2.248-1.949 1.499-1.349 2.698-2.548 5.246-2.548 2.548 0 3.747 1.05 5.246 2.548 1.648 1.649 3.597 3.447 7.344 3.447 3.747 0 5.695-1.798 7.643-3.447 1.5-1.349 2.698-2.548 5.246-2.548 2.548 0 3.747 1.05 5.246 2.548.6.6 1.349 1.349 2.248 1.949l1.649-2.548c-.75-.45-1.35-1.05-1.949-1.649z"/>
        <path d="M27.729 4.909a.412.412 0 0 1-.478.048.44.44 0 0 1-.251-.421V3.353c0-.615.248-1.101.745-1.458L29.381.697A2.749 2.749 0 0 1 31.05.162h1.02c.249 0 .465.092.649.275.183.184.275.4.275.648v9.98a.887.887 0 0 1-.275.648.887.887 0 0 1-.648.275H31.05a.887.887 0 0 1-.648-.275.887.887 0 0 1-.275-.648V3.19h-.033L27.73 4.91zm13.12-1.928c-.302-.594-.777-.891-1.425-.891s-1.126.297-1.434.89c-.308.595-.462 1.626-.462 3.095 0 1.469.154 2.5.462 3.094.308.594.786.891 1.434.891.648 0 1.125-.297 1.433-.89.308-.595.462-1.626.462-3.095 0-1.469-.157-2.5-.47-3.094zm2.106 7.743c-.767.95-1.944 1.426-3.531 1.426-1.588 0-2.768-.475-3.54-1.426-.772-.95-1.158-2.5-1.158-4.649 0-2.15.386-3.699 1.158-4.65C36.656.476 37.836 0 39.424 0c1.587 0 2.767.475 3.54 1.426.772.95 1.158 2.5 1.158 4.649 0 2.15-.39 3.699-1.167 4.65z"/>
    </g>
</svg>
