<svg xmlns="http://www.w3.org/2000/svg" width="72" height="71" viewBox="0 0 72 71">
    <g fill="#ED1C24" fill-rule="nonzero">
        <path d="M35.555 13.866a6.927 6.927 0 0 0 6.919-6.92 6.927 6.927 0 0 0-6.92-6.918 6.927 6.927 0 0 0-6.918 6.919 6.927 6.927 0 0 0 6.919 6.919zm0-10.379a3.463 3.463 0 0 1 3.46 3.46 3.463 3.463 0 0 1-3.46 3.46 3.463 3.463 0 0 1-3.46-3.46 3.463 3.463 0 0 1 3.46-3.46zM25.176 29.433a1.73 1.73 0 0 0 1.73-1.73c0-4.768 3.88-8.648 8.649-8.648 4.769 0 8.648 3.88 8.648 8.649a1.73 1.73 0 0 0 3.46 0c0-6.677-5.432-12.109-12.108-12.109-6.677 0-12.108 5.432-12.108 12.109 0 .955.774 1.73 1.73 1.73zM12.108 54.476a6.927 6.927 0 0 0 6.919-6.919 6.927 6.927 0 0 0-6.919-6.919 6.927 6.927 0 0 0-6.919 6.92 6.927 6.927 0 0 0 6.92 6.918zm0-10.378a3.463 3.463 0 0 1 3.46 3.46 3.463 3.463 0 0 1-3.46 3.459 3.463 3.463 0 0 1-3.46-3.46 3.463 3.463 0 0 1 3.46-3.46zM12.108 56.206C5.432 56.206 0 61.638 0 68.314a1.73 1.73 0 0 0 3.46 0c0-4.769 3.88-8.649 8.648-8.649 4.769 0 8.649 3.88 8.649 8.65a1.73 1.73 0 0 0 3.46 0c0-6.677-5.432-12.109-12.109-12.109zM59.001 54.476a6.927 6.927 0 0 0 6.92-6.919A6.927 6.927 0 0 0 59 40.638a6.927 6.927 0 0 0-6.918 6.92A6.927 6.927 0 0 0 59 54.475zm0-10.378a3.463 3.463 0 0 1 3.46 3.46A3.463 3.463 0 0 1 59 51.016a3.463 3.463 0 0 1-3.459-3.46 3.463 3.463 0 0 1 3.46-3.46zM59.001 56.206c-6.676 0-12.108 5.432-12.108 12.108a1.73 1.73 0 0 0 3.46 0c0-4.769 3.88-8.649 8.648-8.649 4.77 0 8.65 3.88 8.65 8.65a1.73 1.73 0 0 0 3.459 0c0-6.677-5.432-12.109-12.109-12.109zM46.306 47.03l-9.022-5.209V31.403a1.73 1.73 0 0 0-3.459 0v10.418l-9.022 5.209a1.73 1.73 0 1 0 1.73 2.996l9.022-5.209 9.022 5.209a1.73 1.73 0 0 0 1.73-2.996z"/>
    </g>
</svg>
