<svg xmlns="http://www.w3.org/2000/svg" width="66" height="72" viewBox="0 0 66 72">
    <g fill="#ED1C24" fill-rule="nonzero">
        <path d="M63.7 41.929a13.474 13.474 0 0 0-6.788-5.28V4.49c0-2.48-2.01-4.491-4.491-4.491H20.892a1.495 1.495 0 0 0-.374.075h-.15a1.496 1.496 0 0 0-.434.3L.472 19.835a1.495 1.495 0 0 0-.3.434v.135a1.496 1.496 0 0 0-.074.39l-.075.164v46.41c0 2.48 2.011 4.49 4.491 4.49h41.919c.322.005.637-.095.898-.284l5.09-3.832 5.09 3.817a1.497 1.497 0 0 0 2.395-1.198v-9.76c6.204-4.109 7.903-12.47 3.795-18.673zM19.486 5.105v9.866c0 2.48-2.01 4.49-4.491 4.49H5.128L19.485 5.106zm25.45 63.76H4.515c-.828 0-1.498-.67-1.498-1.497V22.456h11.977a7.485 7.485 0 0 0 7.485-7.485V2.994H52.42c.827 0 1.498.67 1.498 1.497V36.02a13.324 13.324 0 0 0-9.941 2.904l-9.521-8.174V19.462h4.49V7.485H26.97v11.977h4.491v11.977c0 .437.192.853.524 1.137l9.956 8.474a13.475 13.475 0 0 0-1.497 2.365h-25.45v-4.491h4.491V26.947H7.508v11.977H12v5.988c0 .827.67 1.497 1.497 1.497H39.29a13.471 13.471 0 0 0-.344 2.995v.703l-9.461 6.782h-10.21a5.988 5.988 0 1 0 0 2.994h10.689c.312-.002.615-.102.868-.285l8.713-6.227a13.474 13.474 0 0 0 5.39 7.23v8.265zm-14.97-52.397V10.48h5.988v5.988h-5.989zM10.502 35.93V29.94h5.988v5.989h-5.988zm5.988 22.456a2.994 2.994 0 1 1-5.988 0 2.994 2.994 0 0 1 5.988 0zm40.42 8.982l-3.592-2.694c-.532-.4-1.264-.4-1.797 0l-3.593 2.694v-5.284a13.22 13.22 0 0 0 8.983 0v5.284zm-4.49-7.485c-5.788 0-10.48-4.692-10.48-10.48 0-5.787 4.692-10.48 10.48-10.48 5.787 0 10.48 4.693 10.48 10.48 0 5.788-4.693 10.48-10.48 10.48z"/>
        <path d="M50.924 50.287l-3.429-3.429-2.11 2.111 4.49 4.491c.585.581 1.528.581 2.112 0l7.485-7.485-2.111-2.11-6.437 6.422zM46.432 7.485h2.994v11.977h-2.994z"/>
    </g>
</svg>
